# xmcd
#
# Track frame offsets: 
#        150
#        19029
#        32059
#        47752
#        64278
#
# Disc length: 1066 seconds
#
# Revision: 1
# Processed by: cddbd v1.5.2PL0 Copyright (c) Steve Scherf et al.
# Submitted via: ExactAudioCopy v1.0b4
#
DISCID=3c042805
DTITLE=Alyssa Trahan - Wild and Crazy
DYEAR=2014
DGENRE=Country and Folk
TTITLE0=Wild and Crazy
TTITLE1=Cowboy
TTITLE2=Over You
TTITLE3=Baby I Love You
TTITLE4=He's Mine
EXTD=
EXTT0=
EXTT1=
EXTT2=
EXTT3=
EXTT4=
PLAYORDER=
